<?xml version="1.0" encoding="utf-8"?>
<!-- Generator: Adobe Illustrator 18.1.1, SVG Export Plug-In . SVG Version: 6.00 Build 0)  -->
<svg version="1.1" id="Layer_1" xmlns="http://www.w3.org/2000/svg" xmlns:xlink="http://www.w3.org/1999/xlink" x="0px" y="0px"
	 viewBox="0 0 612 792" enable-background="new 0 0 612 792" xml:space="preserve">
<path stroke="#FFFFFF" stroke-miterlimit="10" d="M481,448.5v25.2H319.2v90.9h-27.1v-90.9H131.8v-25.2H292v-64.6h-120v-24.7h120V298
	H153.1v-25.2H231c-6.6-15.9-20.1-40.3-32.9-58l23.3-9.3c14,18.6,28.6,43.3,35.3,59.6l-19,7.7h131.2c-5-2.3-10.9-4.7-14.3-5.8
	c12.4-17,27.5-44.6,35.6-63.5l31.7,11.3c-1.1,2.3-3.9,3.4-8.1,3.4c-8.9,15.9-23.3,38.3-35.3,54.6h83.2V298H319.2v61.2h118.9v24.7
	H319.2v64.6H481z"/>
</svg>
