<?xml version="1.0" encoding="utf-8"?>
<!-- Generator: Adobe Illustrator 18.1.1, SVG Export Plug-In . SVG Version: 6.00 Build 0)  -->
<svg version="1.1" id="Layer_1" xmlns="http://www.w3.org/2000/svg" xmlns:xlink="http://www.w3.org/1999/xlink" x="0px" y="0px"
	 viewBox="0 0 792 612" enable-background="new 0 0 792 612" xml:space="preserve">
<path fill="#FFFFFF" d="M639.5,386.7v35H414.1v126.6h-37.7V421.6H153.1v-35.2h223.2v-90H209.2v-34.4h167.1v-85.3H182.8v-35.2h108.4
	c-9.2-22.2-27.9-56.1-45.8-80.8l32.5-13c19.5,26,39.8,60.4,49.2,83.1l-26.5,10.8h182.8c-7-3.2-15.1-6.5-19.8-8.1
	c17.3-23.6,38.2-62.2,49.6-88.5l44.2,15.7c-1.6,3.2-5.4,4.7-11.4,4.7c-12.4,22.2-32.5,53.4-49.2,76.1h115.9v35.2H414.1v85.3h165.7
	v34.4H414.1v90L639.5,386.7L639.5,386.7z"/>
</svg>
