<svg xmlns="http://www.w3.org/2000/svg" width="500" height="500" viewBox="0 0 500 500" enable-background="new 0 0 500 500"><style type="text/css">.st0{fill:#FFFFFF;}</style><path class="st0" d="M393 292.9v20.6h-132.2v74.3h-22.1v-74.3h-131v-20.6h130.9v-52.8h-98v-20.2h98v-50h-113.5v-20.6h63.6c-5.4-13-16.4-32.9-26.9-47.4l19-7.6c11.4 15.2 23.4 35.4 28.8 48.7l-15.5 6.3h107.2c-4.1-1.9-8.9-3.8-11.7-4.7 10.1-13.9 22.5-36.4 29.1-51.9l25.9 9.2c-.9 1.9-3.2 2.8-6.6 2.8-7.3 13-19 31.3-28.8 44.6h68v20.6h-116.4v50h97.1v20.2h-97.1v52.8h132.2z"/></svg>
