<svg xmlns="http://www.w3.org/2000/svg" width="500" height="500" viewBox="0 0 500 500" enable-background="new 0 0 500 500"><style type="text/css">.st0{fill:#FFFFFF;}</style><path class="st0" d="M100.8 398.5l-60.8-61.5v-174.2l61.4-61.4 61.3-61.4h173.4l61.9 61.3 61.9 61.3v174.8l-61.4 61.4-61.3 61.2h-175.6l-60.8-61.5zm286.8-11.5l56.1-56.8v-160.4l-56.6-57.2-56.6-57.2h-161l-57.1 57.1-57.1 57.1v160.8l56.7 56.7 56.7 56.7h162.8l56.1-56.8zm-270.4-4.2l-55-55v-155.8l55.5-54.9 55.5-54.9h153.6l55.5 54.9 55.5 54.9v155.8l-55 55-55 55h-155.6l-55-55zm226.3 31.2c20.2-19.5 20-19.1 8.6-17.4-7.1 1.1-7.1 1.1-8-6.1-.5-4.4-.3-5.4 1.7-8.8 1.2-2.1 2.8-4.1 3.5-4.5 1-.5 1.6-4.7 2.5-17.8.7-9.4 1.3-17.4 1.3-17.7 0-1.4-4.5-.5-13.2 2.9-2.3.9-4.3 1.5-4.3 1.4-.1-.1-1-1.6-2-3.4l-1.9-3.2-4.7 4.7c-2.6 2.6-5.1 4.7-5.7 4.7s-2-1.8-3.1-3.9c-2.4-4.5-9.8-11.5-12.1-11.5-.9 0-1.6.3-1.6.7 0 1-10 2.7-15.9 2.7-2.8 0-6-.6-7.2-1.2-1.2-.7-2.9-1.6-3.8-2s-2.4-1.6-3.3-2.6-2.5-1.8-3.6-1.8c-4 0-21.9 10-28.8 16-6 5.3-19.4 20-21.7 23.9-.9 1.5-1.1 1.3-2.5-1.6-.8-1.8-1.8-3.2-2-3.2-.7 0-7.7 8.2-10.2 11.9-3.4 4.9-5.2 9.8-5.8 15.3l-.5 5.2h-18.4l-.6-4.8c-1-8.1.2-16.4 3.3-21.8 4.1-7.2 6.6-9.5 25.2-23.5 9.5-7.2 17.1-13.2 16.8-13.5s-.1-2.5.5-5c1.2-5.7.4-6.6-4.2-4.8l-3.5 1.4 1.5-2.6c1.5-2.6 6.4-8.9 10.1-12.8 1.2-1.3 4.7-3.1 8.7-4.5 3.7-1.2 6.2-2.3 5.5-2.3-1.6 0-21.4-9.9-31-15.4-5.3-3.1-10.3-6.8-14.1-10.7-5.4-5.4-6.4-6.9-10.1-15.8-6.2-15-7-16.9-11.2-26.5-7.1-16.2-13.7-23.7-21.7-24.6-3-.3-4-.1-5.8 1.6-3.6 3.4-5.3 6.9-5.9 12.4-.6 4.9-.4 5.5 3 12.3 2 3.9 3.4 7.2 3.3 7.2-1.9.9-19 6.5-19.2 6.3s-.7-3.1-1.2-6.5-1.8-8.1-3-10.4c-1.2-2.3-2.1-5.7-2.1-7.5 0-3.1 2.1-10.6 4.1-14.4.5-.9 2.5-5 4.5-9.2 4.9-10.2 6.4-11.1 16.7-10.5 7.2.5 18.4 2.8 21.1 4.3.6.4.2-.4-.9-1.6-2.2-2.4-9.2-7.5-13.7-10-1.4-.8-3.8-2.4-5.4-3.6-1.6-1.2-3.2-2.3-3.6-2.3-.3 0-2.5-1.3-4.8-3-2.3-1.6-4.6-3-5.1-3s-4.3-2.3-8.5-5.2c-7.9-5.4-11.8-6.7-25-8.1-5.4-.6-10-3.6-10-6.5 0-.9-.3-1.6-.6-1.6-.4 0-6.1 5.3-12.9 11.8l-12.2 11.7v152.2l52.8 52.8 52.8 52.8h150.6l18.5-17.5zm88.3-164v-75.3l-53.2-53.3-53.2-53.3h-151.4l-34.8 35.3c-34.7 35.2-34.8 35.3-32.5 36.4 1.3.6 3.3 1 4.5 1.1 2.5 0 15.3 4.2 19.2 6.3 1.4.7 3.6 2.3 4.9 3.5 2.3 2.2 6 4.5 13 8.3 1.9 1 4.4 2.5 5.6 3.3 9.7 6.5 21.3 13.3 21.8 12.7.1-.2 1-1.5 2-2.9 1.5-2.2 3-2.9 9.3-4.6 4.1-1.1 8.9-2.9 10.5-4s3.4-2 3.9-2 1.6-.8 2.5-1.7c1.2-1.4 1.3-1.8.3-2.1-9.8-3.3-16.6-5.8-18.7-6.9-3.5-1.8-10.6-1.6-16.5.5-6.8 2.4-11 2-12.6-1.3-1.7-3.5-.4-6.5 3.3-7.8 1.6-.6 2.3-1.1 1.5-1.1-2.8-.1-5.7-2.7-6.2-5.6-.6-3.2.4-5.6 3.8-9.3 3-3.2 5.7-4.6 14.6-7.3 6.4-2 8.9-2.2 19.5-2.3h12.2v-2.2c0-2.7-2.1-7.8-4.5-11.1-1-1.3-1.6-2.6-1.4-2.8.9-.9 9.6 2.1 11.6 4 1.2 1.1 3.1 3.6 4.3 5.6s2.3 3.6 2.5 3.6 4.1-3.5 8.7-7.8c10.5-9.9 14.7-12.9 29.8-21.9 8.9-5.2 22.6-7.1 28.7-4 3 1.5 9.1 6.2 12.8 9.8 4.8 4.7 7.1 13.6 5 19.2-1.1 3-6.8 8.1-9 8.1-1.5 0-1.7-.4-1.4-3 .7-5.8-.4-8.5-4.3-10.7-3.2-1.8-4.7-2.1-12.2-2.1-8.6 0-8.6 0-14.6 3.6-6.1 3.7-13.3 10.1-16.8 14.9l-1.9 2.6 2.5-1.6c1.4-.9 3.8-2.6 5.5-3.8 6.3-4.7 11.6-6.8 17.3-6.8 6.9 0 10.1.9 14.1 4.2 1.8 1.4 4.8 3.2 6.8 3.8 5.4 1.9 10 5.1 13.7 9.6 3.3 4 3.3 4.1 3.3 11.4 0 6.3-.3 8-2.3 11.6-1.2 2.4-3.6 5.5-5.1 7l-2.9 2.7.3-6.4c.3-6 .1-6.7-2.4-10.7-1.5-2.3-3-4.2-3.4-4.2s-1.7-1-2.9-2.1c-1.3-1.2-3.1-2.1-4-2.1s-2.9-.6-4.4-1.4c-3.6-1.9-9.5-1.7-15.6.4-14.8 5.2-14.2 4.9-12.6 6.3 2.9 2.5 7 4.1 10.9 4.1 2.1 0 3.9.2 3.9.5 0 1-3.6 5.1-5.8 6.5-1.3.8-3.6 1.6-5.3 1.6l-3 .1 3.4.8c1.9.5 6.1 1.1 9.3 1.4l5.9.6-1.9 2.5c-1.1 1.3-3 2.9-4.4 3.5-2.4 1-2.4 1 3.1 2.6 5.4 1.6 5.5 1.6 4.2 3.5-.7 1.1-3 2.6-5.1 3.4s-3.8 1.7-3.8 2.1c0 1.1 3.5 5.1 4.6 5.1.6 0 2.8.9 5 2l4 2-5.5 2.3c-3 1.2-6.1 2.3-6.8 2.3-.9 0-1.3.9-1.3 2.9 0 2.8.1 2.9 4.3 3.4 2.8.3 5.4 1.3 7.4 2.9l3.1 2.4-2 1.6c-1.4 1.1-3.1 1.5-5.8 1.4l-3.9-.2-2 7.2c-3.7 13.8-3.9 15.2-2.8 20.5 1.4 6.4 5.9 12.6 11.2 15.1 4.8 2.3 14 4.8 29.5 8 6.6 1.4 13.7 3.1 15.8 3.8 4.1 1.5 9.9 5.8 14.8 11.1 2.9 3.1 3.2 3.3 3.2 1.5.1-3.2 4-10.1 7-12.2 2.4-1.7 3.8-2 11.8-2 8.4-.1 9.3.1 12.6 2.3 5.4 3.5 5.4 4.2.1 3.6-6.4-.7-8.5.6-10 6.3-1.5 5.6-5.8 9.5-13.2 11.8l-5 1.6 2.1 3.1c3.8 5.5 5.7 11.1 6.7 19.3 1 8 1 8 3.2 7.5 6.3-1.5 14-2.3 16.5-1.9 3.7.7 8 4.9 9.2 9 1.9 6.4-.2 31.7-4 47.1-1.2 4.9-3.1 13.2-4.2 18.3l-2 9.3 33.3-33.3 33.3-33.3v-75.3h-.1z"/></svg>
