<?xml version="1.0" encoding="utf-8"?>
<!-- Generator: Adobe Illustrator 18.1.1, SVG Export Plug-In . SVG Version: 6.00 Build 0)  -->
<svg version="1.1" id="Layer_1" xmlns="http://www.w3.org/2000/svg" xmlns:xlink="http://www.w3.org/1999/xlink" x="0px" y="0px"
	 viewBox="0 0 792 612" enable-background="new 0 0 792 612" xml:space="preserve">
<path fill="#FFFFFF" d="M531.2,346.6V366h-125v70.2h-20.9V366H261.4v-19.5h123.8v-49.9h-92.7v-19.1h92.7v-47.3H277.9v-19.5H338
	c-5.1-12.3-15.5-31.1-25.4-44.8l18-7.2c10.8,14.4,22.1,33.5,27.3,46.1l-14.7,6h101.4c-3.9-1.8-8.4-3.6-11-4.5
	c9.6-13.1,21.2-34.5,27.5-49.1l24.5,8.7c-0.9,1.8-3,2.6-6.3,2.6c-6.9,12.3-18,29.6-27.3,42.2h64.3v19.5H406.2v47.3h91.9v19.1h-91.9
	v49.9L531.2,346.6L531.2,346.6z"/>
</svg>
