<?xml version="1.0" encoding="utf-8"?>
<!-- Generator: Adobe Illustrator 18.1.1, SVG Export Plug-In . SVG Version: 6.00 Build 0)  -->
<svg version="1.1" id="Layer_1" xmlns="http://www.w3.org/2000/svg" xmlns:xlink="http://www.w3.org/1999/xlink" x="0px" y="0px"
	 viewBox="0 0 612 792" enable-background="new 0 0 612 792" xml:space="preserve">
<g>
	<path stroke="#FFFFFF" stroke-miterlimit="10" d="M123.4,577.8L49,502.5V289.3l75.2-75.2l75-75.2h212.2l75.8,75l75.8,75v214
		l-75.2,75.2l-75,74.9H197.8L123.4,577.8L123.4,577.8z M474.4,563.7l68.7-69.5V297.8l-69.3-70l-69.3-70H207.5l-69.9,69.9l-69.9,69.9
		v196.8l69.4,69.4l69.4,69.4h199.3L474.4,563.7L474.4,563.7z M143.5,558.5l-67.3-67.3V300.5l67.9-67.2l67.9-67.2h188l67.9,67.2
		l67.9,67.2v190.7l-67.3,67.3l-67.3,67.3H210.8L143.5,558.5z M463.3,553.3l65.2-65.1V303.8l-65.1-65.2l-65.1-65.2H213l-64.7,64.7
		l-64.6,64.6V489l64.6,64.6l64.6,64.6h185.3L463.3,553.3L463.3,553.3z"/>
	<path stroke="#FFFFFF" stroke-miterlimit="10" d="M433.1,234.1c-1.8,0.1-2.9,4.3-3.4,5.8c-1.2-0.4,0-2.4-0.4-3.4
		c-0.7-1.8-2-1.1-3.2-0.1c-1.3,1.1-4,2.8-4.8,4.3c-0.5,1-0.2,1.3-1,2.2c-0.7,0.7-1.3,1.5-1.8,2.4c-1.7,4,0.9,8.2,3.8,10.8
		c2.9,2.7,5.6,3.8,9.7,4c-1,1.3-1,2.2-0.4,2.8c-1.1,0.5-2.2,1.2-3.3,2.1c-2.6,2-4.8,4.8-8.1,5.3c-8.2,1.5-15.3,0.9-22.8,5
		c-6.4,3.5-12.2,8.8-17.5,13.7c-2.2,2-14.6,14.2-13.2,15.9c-12.2,13.3-20.9,29-33,42.5c-2.3,2.6-4,4.9-6.9,6.4
		c-2.1,1.1-3.9,2.2-5.9,3.5c-7.3,5.3-15.3,10.9-23.5,14.9c-0.5-2.2,0.5-4.9-1.3-6.7l-0.4,0.5c-0.4-0.6-0.9-1.2-1.1-1.7
		c0.1,0.5,0.1,1.1,0.2,1.7c-1.1-2.2-2.4-3.9-4.5-4.9c0.4,0.7,0.7,1.5,1.2,2.2c-1.7-1.8-2-4.5-4-6.1l0.2,1.6
		c-1.7-1.3-2.8-2.8-4.7-4.2l1,1.1c-1.1-0.7-2.1-1.7-3.3-2c0.9,0.6,1.3,1.1,2,1.8c-2.1-0.7-3.5-2.8-5.3-4c0.1,0.4,0.2,0.9,0.4,1.3
		c-0.7-1-1.5-1.8-2.4-2.4c0.4,0.6,0.6,1.2,1.1,1.8c-0.6-0.7-1.8-1.7-2.9-2c0.6,0.6,1.1,1.3,1.3,2.3c-1-1.2-3.4-3.2-2.3-0.4
		c-0.9-1-1.8-1.2-2.2-0.2c-1.2-1-2.7-1.2-1.6,0.4c-0.6-0.4-1.2-0.2-1.8-0.5c0.4,0.6,0.5,1.1,1.1,1.6c-1.1-0.1-2.9-0.9-3.8-0.2
		c0.9,0.2,1.6,0.6,2.4,1c-0.9,0.1-1.7,0.1-2.7,0c0.5,0.4,0.6,1,1.3,1.3c-1.1-0.2-2.3-0.2-3.1,0.5c0.1,0.1,0.5,0.1,0.7,0.2
		c-0.5,0.1-1,0.6-1.3,0.7l1.7,0.1c-4.3,1.7-6.1-2.1-9.3-4.4c-4.3-3.2-9.3-5.1-13.6-8.2c-5-3.7-12.2-4.2-18.1-5
		c-2.3-0.4-16.5-4.2-10.9,2.1c-4.7-2-4.8-5.3-10.6-4.4c-6,0.9-11.8,2.1-17.7,3.1c-4.4,0.7-9.4,1.6-12.9,4.5c-2,1.6-6,3.5-7,5.8
		c-1.3,2.9,0,4-3.1,6.2c-2,1.3-3.9,2.7-6,3.8c-1.2,0.6-4.9,1.3-5.5,2.3c-1.3,1.8,0.5,4.2-1.1,5.9c-1.8,1.8-3.2,1.5-4.5,4
		c-2.8,5.4,0.2,5.5,4.8,4.7c2-0.4,4.4-1.7,6.4-1.5c1.6,0.2,1.5,1.3,2.9,1.7c1.6,0.5,3.5-0.7,5.3-0.6c5.5,0.4-2.1,19.6-3.1,23
		c-3.8-0.9-4.8,19.6-4.8,22.8c0.1,10.2-1,20.3,0.4,30.5c0.4,2.4,1.1,3.8,1.8,6c1,2.9,0.4,6.5,1.7,9.4c1.6,3.4,2.1,7,3.2,10.8
		c1.3,5,4,10.3,6.1,15.2c3.8,9.4,11.4,20.7,20.6,25.7c0.6,0.4,2.8,1.5,3.3,0.9c0.6-0.7-4.4-3.3-4.9-3.7c-4.4-3.3-7.6-7.6-10.4-12.1
		c-6.1-9.7-10-19.6-11.9-30.8c-0.9-5.3-1-10.5-1.1-15.9c0-5.8,2-13.2,0.4-18.6c-0.9-2.8,0.4-4.7,0.9-7.6c0.5-3.1,0.6-6.5,0.9-9.7
		c0.5-4.8,2.1-9.2,3.4-13.7c0.2,0,1.2,0.1,1.5,0.2c0.2,12,1.8,24.6,4.4,36.5c2.2,10.2,5.9,21.8,10.6,31.1
		c4.9,9.7,12.4,18.2,19.5,26.4c4.2,4.9,1.8-3.5,1-5.5c-2-4.5-4.3-8.9-6.5-13.3c-2.1-4.4-4-8.8-5.4-13.6c-0.7-2.8-1.6-5.5-2.6-8.2
		c-0.9-2.2,0-4.8-0.5-7c-2-9.1-1.8-18-2.9-27.2c0.4,2.6,1.7,3.9,4.3,4.5c2.9,0.6,5.1-1.2,7,1.3l5.1,7.3c2.8,4.2,6.4,6.9,10.5,9.5
		c3.8,2.3,7.7,2.8,11.6,4.5c3.8,1.7,7.1,4.7,10.6,6c1.7,0.6,7.8,5.4,9.4,4.7c1.5-0.7-4.7-5-5.6-6.1c-2.7-3.1-3.5-6.2-3.4-10.3
		c0-3.1,0.7-6.1,2.6-8.7c2.7,4,7.7,8.1,12.4,9.5c1.6,0.5,5.9,1.6,5.3-1.3c2.6,2.7,7.2,12.5,5.1,3.1c-0.7-3.2,1.3-6.2,2.4-9.3
		c5,4.7,9.1,13,15.1,16.2c-0.5-1.8-1.7-3.7-2.6-5.4c1.5,1.8,4,2.1,5.9,2.8c2,0.7,3.4,1.2,4.9,2.2c1.2,1,2.2,2.1,3.7,2.8
		c-1.8,3.8,3.4,4.5,4.3,1.3c1.3,0.9,2.4,1,3.2,2.3c1.3,2.3,0.7,3.9,2.9,6.1c0.6,0.6,4,4,5.3,3.4c0.6-0.4,0.2-3.4,0.4-4.4
		c3.3,1.2,5.4,2.3,8.7,2.3c-0.4,1.8,0.9,1.6,1.3,2.2c-0.6-0.6,1.2,0.4,1.2,0.4c0.4,0.2,0.7,1,1.1,1.3c2.2,1.5,4.7,2.9,6.9,4.2
		c3.3,1.8,6.1,3.9,9.3,5.8c2.2,1.2,4.9,1.5,6.1,3.7c1.1,2.2,0.7,6.1,1,8.6c0.4,4.2,2.2,11.9,0.1,15.8c-1.1,2-6.2,1.6-6.5,4.4
		c-0.4,3.2,4.3,2.4,5.9,4c2.2,2.3-1.1,6.9-2.9,9.3c-2.8,3.7-6.2,12.7,2.1,12.1c2.4-0.2,2-0.7,3.9,0.7c1.5,1.1,2.7,3.1,4,4.4
		c1.7,1.7,3.5,1.6,5.3,2.4c0.6,0.4,1.7,1.3,2.2,1.7s1.8,0.2,2,0.9l0.1,1.5c0.5,0.5,0.2,2.1,1.6,1.3c0.6-0.2,0.7-2.8,0.7-3.3
		c0-2.1,0.6-3.5-0.9-5.4s-3.8-1.7-5.4-3.2c8.4,2.7,18-0.6,26.6,0.9c2.1,0.4,4.3,0.1,6.1,0.5c1.2,0.2,5.4,2.8,5.8,2
		c1.7-3.3-8.7-7.2-10.2-7.5c-4.5-0.7-9.4-0.6-14-0.5c-3.8,0-6.6-1.2-10.4-2c2.4-2.1,4.9-3.5,7.2-5.8c1.1-1.1,2.2-3.1-0.4-2.4
		c-4.9,1.2-8.9,4.2-14.1,5.3c0.5-6.7,0.7-13.6,1-20.3c0.1-3.9,0.7-7.7,1.1-11.6c0.1-1.7,0.1-3.9,0.9-5.5c0.9-2-0.1-2,1.6-1.3
		c5.1,1.7-0.1,8.9,2.1,11.5c1.5,1.6,5.4-1.1,6.7-2.1c-0.5,2.6-0.2,4.9,1.6,6.4c0.7,0.6,1.7-0.1,2.4,0.6c0.1,0.1,0.5,2.7,0.6,3.2
		c1.5,2.9-0.5,3.5-0.6,6.6c-0.1,2.7,1.2,4.9,2.1,7.5c0.4,1.2-1,4.2,0,4.8c1.5,0.7,4-3.7,4.3-4.7c0.7-2.7-0.4-6,0-8.9
		c0.7-4.7,1.1-6.5-1.2-10.6c2.3,2.4,5.3,4.9,6.1,8.3c0.4,1.7,0.1,3.4,0.9,5c0.6,1.6,1.8,2.6,2.2,4.2c0.4,1.7-1.2,5.4,1.3,3.2
		c2.4-2.1,1.7-8.1,1.5-10.8c-0.5-6.7-3.2-12.6-7.7-17.3c-6.7-6.7-13.7-13.3-21.5-18.7c2.7-3.8,3.9-8.4,6.5-12.4
		c2.6-4,5.6-7.7,9.2-10.8c2.8-2.4,5.8-3.4,7.8-6.6c2.2-3.3,5-4.7,8.7-6.7c8.2-4.7,15.2-11.4,21.8-18c3.2-3.2,6-6.1,7.8-10.2
		c1.3-2.9,2.4-5.8,3.9-8.7c4.5-8.6,8.1-17.6,12.1-26.3c3.3-7,5.5-14.4,5.6-22.2c0.2-9.2-3.2-17.3-4.7-26.3c-0.5-3.4,1-6.2,1.8-9.5
		c1.2-5,1.1-10,1.5-15.1h0.1c3.9,1,10.4,1.7,13.3-1.5c2-2.1,4.2-3.7,5.8-6.2c1.5-2.3,2-4.9,2.4-7.6c0.4-1.8,0.6-5-0.6-6.6
		c-0.5-0.7-1.3-0.5-2-1c-0.6-0.5-0.9-1.6-1.3-2.3c-0.1-0.2-0.4-0.5-0.5-0.6c0.2-0.7,0.1-1.7,1.1-1.8c2-0.2,3.9-0.4,5.8-0.2
		c1.5,0.1,3.4,1.2,4.4,1.3c0.7,0.1,0.2,1.3,1.2,0.2c0.5-0.5,0.5-1.7,0.4-2.4c-0.5-2.2-1.8-4.2-3.5-5.8c-0.9-0.7-1.7-1.5-2.8-2
		c-0.6-0.4-2-0.5-2.3-1.1c-0.2-0.2-0.1-0.5-0.1-0.6c0.6-0.6,2.1,0,2.9-1c1.2-1.2,1.2-3.8,1.3-5.4c-0.1-2.4-0.7-5.9-3.9-5.4
		c0.2-2.7-0.1-5-1.3-7.5c-0.5-0.9-1-0.5-1.6-1c-1-0.9-0.9-2.6-1-4c0-0.6,0-1.5-0.7-1.6c-0.5,0-1.2,0.2-1.2,0.7
		c-0.1,1.5-0.4,2.8-0.7,4.3c-0.1,0.7-0.4,2.4-1.3,1.2c-0.6-0.7,0.1-1.7,0.2-2.6c0.4-1.3,0.5-2.9,0.2-4.3c-0.5-2.3-1.2-4.9-3.1-6.6
		c-0.5-0.5-1.3-1.1-2.2-1c-1,0.1-0.7,1.1-1.1,1.7c-1.3,1.7-2.1,4-2.4,6.1c-0.4-2.7-1-5.5-0.9-8.3c0.1-1.3,1.3-6.5-1.8-5.9
		c-2,0.4-3.3,5.1-3.9,6.7c-0.6,1.7-1.5,3.1-2.4,4.5c-0.5-2.1-1-4-1.3-6.1c-0.2-1.5,0.1-3.5-1-4.7
		C433.9,234.2,433.4,234.1,433.1,234.1L433.1,234.1z M439.8,273.5h0.6c4,0.7,2.9,6.7-1.1,5.8C436.2,278.5,436.8,273.6,439.8,273.5z
		 M440.6,274.3c-1.2,0-2.2,2-1.3,3.1c0.2,0.4,0.6,0.6,0.9,0.6c1.3,0.2,2.6-2.3,1.3-3.3C441.3,274.5,440.9,274.3,440.6,274.3z"/>
</g>
</svg>
