<?xml version="1.0" encoding="utf-8"?>
<!-- Generator: Adobe Illustrator 18.1.1, SVG Export Plug-In . SVG Version: 6.00 Build 0)  -->
<svg version="1.1" id="Layer_1" xmlns="http://www.w3.org/2000/svg" xmlns:xlink="http://www.w3.org/1999/xlink" x="0px" y="0px"
	 viewBox="0 0 612 792" enable-background="new 0 0 612 792" xml:space="preserve">
<path stroke="#FFFFFF" stroke-miterlimit="10" d="M204.2,455c1.1-9.3,2.3-19.7,3.1-30.6l30.2,2.7c0,2.7-2.7,4.7-7.3,5
	c-0.7,7.7-1.6,15.5-2.7,22.9h75.5v20.6h-79.3c-0.7,3.4-1.6,7-2.7,10.4c27.9,17,61.6,41,78.2,57.7l-15.9,16.6
	c-14.7-15.5-43.3-37.9-70-55c-12.7,26.3-34.9,46-74.7,59.2c-2.3-5.8-8.9-14.7-13.6-19c44.9-14,65-36.4,74.7-70h-72V455H204.2
	L204.2,455z M174.1,229.4c39.5-6.6,81.6-15.9,105.6-25.2l22,17.7c-0.7,1.1-2.3,1.6-4.3,1.6c-0.7,0-2,0-3.1-0.4
	c-29,9.7-77.8,19.3-120.4,25.2c-8.1,25.9-19.3,53.4-30.6,72c-4.7-3.4-12.7-9.3-18.2-12c12.7-20.1,24.4-52.6,32.1-84L174.1,229.4
	L174.1,229.4z M263.4,400.9c-6.2-7.3-12.7-14.7-19.3-21.3l17-10.4c17.4,15.9,35.3,37.6,43.7,52.6l-18.2,12
	c-2.3-4.3-5.4-9.3-8.9-14.3c-50.3,3.1-101.5,5.8-133.9,7.3c-0.7,2.7-2.7,4.7-5.4,5l-8.1-26.7c11.3-0.4,24.7-0.4,39.5-1.1
	c7-5.8,14.3-13.2,22-20.9c-11.6-12.7-30.2-29.4-46.9-41l13.6-14.3c4.3,2.7,8.6,5.8,12.7,8.9c10.9-13.6,23.3-31.7,30.2-44.2
	l25.9,11.3c-1.1,2-3.9,3.1-7.3,2.7c-8.9,12-22.9,28.6-34.4,41.4c8.6,6.6,15.9,13.6,21.3,19.7c15.1-16.3,29.9-33.7,39.9-47.6
	l25.2,12.7c-2,2.3-5,3.1-8.1,2.7c-17,20.1-43.3,46.9-66.6,67.7L263.4,400.9L263.4,400.9z M221.7,248.8c5.4,13.6,10,31.7,11.3,43.3
	l-20.1,4.7c-1.1-12-5.4-29.9-10.4-43.7L221.7,248.8z M289,304.8c-5.8-16.3-19.3-41.9-33.3-60l18.6-7.7
	c14.3,17.7,28.3,42.6,34.4,58.9L289,304.8z M486.1,520.8v24H347.9v19h-24.4V349c-7.3,14-15.5,26.7-24,37.9
	c-3.4-5.4-11.3-15.5-15.9-20.6c27.9-36.4,51-99.5,64.6-161.8l32.1,8.1c-0.7,3.1-3.4,4.7-8.6,4.7c-5.4,22-12,44.6-19.7,65.9h43
	c8.1-21.3,17-52.3,21.7-73.6l31,8.9c-1.1,2.3-3.9,3.9-8.6,3.9c-4.7,17.4-12.4,41.4-20.1,60.8h62.7v24h-60.8v54.5h53.9v22.9h-53.9
	v56.5h53.9v22.9h-53.9v56.8H486.1L486.1,520.8z M396.6,361.7v-54.6h-48.7v54.6H396.6z M396.6,441.2v-56.5h-48.7v56.5H396.6z
	 M347.9,463.9v56.9h48.7v-56.9H347.9z"/>
</svg>
