<?xml version="1.0" encoding="utf-8"?>
<!-- Generator: Adobe Illustrator 18.1.1, SVG Export Plug-In . SVG Version: 6.00 Build 0)  -->
<svg version="1.1" id="Layer_1" xmlns="http://www.w3.org/2000/svg" xmlns:xlink="http://www.w3.org/1999/xlink" x="0px" y="0px"
	 viewBox="0 0 792 612" enable-background="new 0 0 792 612" xml:space="preserve">
<path fill="#FFFFFF" d="M257.6,393.2c1.6-12.7,3.2-26.8,4.2-41.6l41,3.7c0,3.7-3.7,6.3-9.9,6.9c-0.9,10.6-2.1,21.1-3.7,31.2H392v28
	H284c-0.9,4.6-2.1,9.5-3.7,14.1c38,23.1,83.8,55.8,106.4,78.6l-21.3,22.5c-20.1-21.1-59-51.6-95.3-74.9
	c-17.3,35.8-47.6,62.5-101.6,80.5c-3.2-7.9-12.2-20.1-18.5-25.9c61.1-19,88.4-49.5,101.6-95.3h-97.9v-27.8H257.6L257.6,393.2z
	 M216.7,86.1c53.7-9,111.2-21.7,143.7-34.3l29.9,24.1c-0.9,1.6-3.2,2.1-5.8,2.1c-0.9,0-2.6,0-4.2-0.5
	c-39.5,13.2-105.9,26.2-163.8,34.3c-11.1,35.2-26.2,72.7-41.6,97.9c-6.3-4.6-17.3-12.7-24.8-16.4c17.3-27.3,33.3-71.5,43.7-114.3
	L216.7,86.1L216.7,86.1z M338.3,319.5c-8.5-9.9-17.3-20.1-26.2-29.1l23.1-14.1c23.6,21.7,48.1,51.3,59.5,71.5l-24.8,16.4
	c-3.2-5.8-7.4-12.7-12.2-19.4c-68.5,4.2-138.1,7.9-182.3,9.9c-0.9,3.7-3.7,6.3-7.4,6.9l-11.1-36.3c15.3-0.5,33.6-0.5,53.7-1.4
	c9.5-7.9,19.4-18,29.9-28.4c-15.9-17.3-41-40-63.8-55.8l18.5-19.6c5.8,3.7,11.6,7.9,17.3,12.2c14.8-18.5,31.7-43.2,41-60.2
	l35.2,15.3c-1.6,2.6-5.3,4.2-9.9,3.7c-12.2,16.4-31.2,38.9-46.9,56.4c11.6,9,21.7,18.5,29.1,26.8c20.6-22.2,40.7-45.8,54.3-64.8
	l34.3,17.3c-2.6,3.2-6.9,4.2-11.1,3.7c-23.1,27.3-59,63.8-90.7,92.1L338.3,319.5L338.3,319.5z M281.6,112.6
	c7.4,18.5,13.6,43.2,15.3,59l-27.3,6.3c-1.6-16.4-7.4-40.7-14.1-59.5L281.6,112.6z M373.2,188.7c-7.9-22.2-26.2-57.1-45.3-81.7
	l25.4-10.4c19.6,24.1,38.6,58,46.9,80.1L373.2,188.7z M641.4,482.7v32.8H453.3v25.9H420V248.9c-9.9,19-21.1,36.3-32.6,51.6
	c-4.6-7.4-15.3-21.1-21.7-28c38-49.5,69.4-135.5,87.9-220.2l43.7,11.1c-0.9,4.2-4.6,6.3-11.6,6.3c-7.4,29.9-16.4,60.8-26.8,89.7
	h58.5c11.1-29.1,23.1-71.2,29.6-100.2l42.3,12.2c-1.6,3.2-5.3,5.3-11.6,5.3c-6.3,23.6-16.9,56.4-27.3,82.8h85.4V192H553v74.2h73.3
	v31.2H553v77h73.3v31.2H553v77.3L641.4,482.7L641.4,482.7z M519.5,266.2v-74.3h-66.2v74.3H519.5z M519.5,374.3v-77h-66.2v77H519.5z
	 M453.3,405.3v77.5h66.2v-77.5H453.3z"/>
</svg>
