<svg xmlns="http://www.w3.org/2000/svg" width="500" height="500" viewBox="0 0 500 500" enable-background="new 0 0 500 500"><style type="text/css">.st0{fill:#FFFFFF;}</style><path class="st0" d="M166.8 298.2c.9-7.6 1.9-16.1 2.5-25l24.7 2.2c0 2.2-2.2 3.8-6 4.1-.6 6.3-1.3 12.7-2.2 18.7h61.7v16.8h-64.8c-.6 2.8-1.3 5.7-2.2 8.5 22.8 13.9 50.3 33.5 63.9 47.1l-13 13.6c-12-12.7-35.4-31-57.2-44.9-10.4 21.5-28.5 37.6-61 48.4-1.9-4.7-7.3-12-11.1-15.5 36.7-11.4 53.1-29.7 61-57.2h-58.8v-16.8h62.5zm-24.6-184.3c32.3-5.4 66.7-13 86.3-20.6l18 14.5c-.6.9-1.9 1.3-3.5 1.3-.6 0-1.6 0-2.5-.3-23.7 7.9-63.6 15.8-98.4 20.6-6.6 21.2-15.8 43.6-25 58.8-3.8-2.8-10.4-7.6-14.9-9.8 10.4-16.4 19.9-43 26.2-68.6l13.8 4.1zm73 140.1c-5.1-6-10.4-12-15.8-17.4l13.9-8.5c14.2 13 28.8 30.7 35.7 43l-14.9 9.8c-1.9-3.5-4.4-7.6-7.3-11.7-41.1 2.5-82.9 4.7-109.4 6-.6 2.2-2.2 3.8-4.4 4.1l-6.6-21.8c9.2-.3 20.2-.3 32.3-.9 5.7-4.7 11.7-10.8 18-17.1-9.5-10.4-24.7-24-38.3-33.5l11.1-11.7c3.5 2.2 7 4.7 10.4 7.3 8.9-11.1 19-25.9 24.7-36.1l21.2 9.2c-.9 1.6-3.2 2.5-6 2.2-7.3 9.8-18.7 23.4-28.1 33.8 7 5.4 13 11.1 17.4 16.1 12.3-13.3 24.4-27.5 32.6-38.9l20.6 10.4c-1.6 1.9-4.1 2.5-6.6 2.2-13.9 16.4-35.4 38.3-54.4 55.3l53.9-1.8zm-34.1-124.3c4.4 11.1 8.2 25.9 9.2 35.4l-16.4 3.8c-.9-9.8-4.4-24.4-8.5-35.7l15.7-3.5zm55 45.8c-4.7-13.3-15.8-34.2-27.2-49l15.2-6.3c11.7 14.5 23.1 34.8 28.1 48.1l-16.1 7.2zm161 176.5v19.6h-112.9v15.5h-19.9v-175.5c-6 11.4-12.7 21.8-19.6 31-2.8-4.4-9.2-12.7-13-16.8 22.8-29.7 41.7-81.3 52.8-132.2l26.2 6.6c-.6 2.5-2.8 3.8-7 3.8-4.4 18-9.8 36.4-16.1 53.8h35.1c6.6-17.4 13.9-42.7 17.7-60.1l25.3 7.3c-.9 1.9-3.2 3.2-7 3.2-3.8 14.2-10.1 33.8-16.4 49.7h51.2v19.6h-49.7v44.5h44v18.7h-44v46.2h44v18.7h-44v46.4h53.3zm-73.1-130v-44.6h-39.8v44.6h39.8zm0 64.9v-46.2h-39.8v46.2h39.8zm-39.8 18.6v46.5h39.8v-46.5h-39.8z"/></svg>
