<?xml version="1.0" encoding="utf-8"?>
<!-- Generator: Adobe Illustrator 18.1.1, SVG Export Plug-In . SVG Version: 6.00 Build 0)  -->
<svg version="1.1" id="Layer_1" xmlns="http://www.w3.org/2000/svg" xmlns:xlink="http://www.w3.org/1999/xlink" x="0px" y="0px"
	 viewBox="0 0 792 612" enable-background="new 0 0 792 612" xml:space="preserve">
<path fill="#FFFFFF" d="M317.3,351.6c0.9-7.2,1.8-15.2,2.4-23.6l23.3,2.1c0,2.1-2.1,3.6-5.6,3.9c-0.5,6-1.2,12-2.1,17.7h58.3v15.9
	h-61.3c-0.5,2.6-1.2,5.4-2.1,8c21.6,13.1,47.6,31.7,60.4,44.6L378.5,433c-11.4-12-33.5-29.3-54.1-42.5c-9.8,20.3-27,35.5-57.7,45.7
	c-1.8-4.5-6.9-11.4-10.5-14.7c34.7-10.8,50.2-28.1,57.7-54.1h-55.6v-15.8H317.3L317.3,351.6z M294.1,177.3
	c30.5-5.1,63.1-12.3,81.6-19.5l17,13.7c-0.5,0.9-1.8,1.2-3.3,1.2c-0.5,0-1.5,0-2.4-0.3c-22.4,7.5-60.1,14.9-93,19.5
	c-6.3,20-14.9,41.3-23.6,55.6c-3.6-2.6-9.8-7.2-14.1-9.3c9.8-15.5,18.9-40.6,24.8-64.9L294.1,177.3L294.1,177.3z M363.1,309.8
	c-4.8-5.6-9.8-11.4-14.9-16.5l13.1-8c13.4,12.3,27.3,29.1,33.8,40.6l-14.1,9.3c-1.8-3.3-4.2-7.2-6.9-11
	c-38.9,2.4-78.4,4.5-103.5,5.6c-0.5,2.1-2.1,3.6-4.2,3.9l-6.3-20.6c8.7-0.3,19.1-0.3,30.5-0.8c5.4-4.5,11-10.2,17-16.1
	c-9-9.8-23.3-22.7-36.2-31.7l10.5-11.1c3.3,2.1,6.6,4.5,9.8,6.9c8.4-10.5,18-24.5,23.3-34.2l20,8.7c-0.9,1.5-3,2.4-5.6,2.1
	c-6.9,9.3-17.7,22.1-26.6,32c6.6,5.1,12.3,10.5,16.5,15.2c11.7-12.6,23.1-26,30.8-36.8l19.5,9.8c-1.5,1.8-3.9,2.4-6.3,2.1
	c-13.1,15.5-33.5,36.2-51.5,52.3L363.1,309.8L363.1,309.8z M330.9,192.3c4.2,10.5,7.7,24.5,8.7,33.5l-15.5,3.6
	c-0.9-9.3-4.2-23.1-8-33.8L330.9,192.3z M382.9,235.5c-4.5-12.6-14.9-32.4-25.7-46.4l14.4-5.9c11.1,13.7,21.9,32.9,26.6,45.5
	L382.9,235.5z M535.2,402.4V421H428.4v14.7h-18.9v-166c-5.6,10.8-12,20.6-18.5,29.3c-2.6-4.2-8.7-12-12.3-15.9
	c21.6-28.1,39.4-76.9,49.9-125l24.8,6.3c-0.5,2.4-2.6,3.6-6.6,3.6c-4.2,17-9.3,34.5-15.2,50.9h33.2c6.3-16.5,13.1-40.4,16.8-56.9
	l24,6.9c-0.9,1.8-3,3-6.6,3c-3.6,13.4-9.6,32-15.5,47h48.5v18.5h-47v42.1h41.6v17.7h-41.6v43.7h41.6v17.7h-41.6v43.9L535.2,402.4
	L535.2,402.4z M466,279.5v-42.2h-37.6v42.2H466z M466,340.9v-43.7h-37.6v43.7H466z M428.4,358.5v44H466v-44H428.4z"/>
</svg>
