<?xml version="1.0" encoding="utf-8"?>
<!-- Generator: Adobe Illustrator 18.1.1, SVG Export Plug-In . SVG Version: 6.00 Build 0)  -->
<svg version="1.1" id="Layer_1" xmlns="http://www.w3.org/2000/svg" xmlns:xlink="http://www.w3.org/1999/xlink" x="0px" y="0px"
	 viewBox="0 0 792 612" enable-background="new 0 0 792 612" xml:space="preserve">
<g>
	<path fill="#FFFFFF" d="M202.3,498.8L123.4,419V192.8l79.7-79.7l79.6-79.7h225.1l80.4,79.6l80.4,79.6v227l-79.7,79.7l-79.6,79.5
		H281.2L202.3,498.8L202.3,498.8z M574.5,483.9l72.9-73.7V201.8L574,127.6l-73.6-74.2H291.5l-74.1,74.1l-74.1,74.1v208.7l73.6,73.6
		l73.6,73.6h211.4L574.5,483.9L574.5,483.9z M223.6,478.4L152.2,407V204.7l72.1-71.2l72.1-71.2h199.4l72.1,71.2l72.1,71.2V407
		l-71.4,71.4l-71.4,71.4H295L223.6,478.4z M562.7,472.7l69.2-69V208.3l-69-69.2l-69-69.2H297.3l-68.6,68.6L160.2,207v197.6
		l68.5,68.5l68.5,68.5h196.5L562.7,472.7L562.7,472.7z"/>
	<path fill="#FFFFFF" d="M530.8,134.3c-1.9,0.1-3,4.5-3.6,6.2c-1.2-0.4,0-2.6-0.4-3.6c-0.7-1.9-2.1-1.1-3.4-0.1
		c-1.4,1.2-4.3,3-5.1,4.5c-0.5,1.1-0.3,1.4-1.1,2.3c-0.7,0.7-1.4,1.6-1.9,2.6c-1.8,4.3,1,8.6,4,11.4c3,2.9,5.9,4,10.3,4.3
		c-1.1,1.4-1.1,2.3-0.4,3c-1.2,0.5-2.3,1.2-3.4,2.2c-2.7,2.1-5.1,5.1-8.6,5.6c-8.6,1.6-16.2,1-24.2,5.4c-6.7,3.7-12.9,9.3-18.5,14.5
		c-2.3,2.1-15.5,15.1-14,16.9c-12.9,14.1-22.1,30.7-35,45c-2.5,2.7-4.3,5.2-7.3,6.7c-2.2,1.2-4.1,2.3-6.3,3.7
		c-7.7,5.6-16.2,11.5-25,15.8c-0.5-2.3,0.5-5.2-1.4-7.1l-0.4,0.5c-0.4-0.7-1-1.2-1.2-1.8c0.1,0.5,0.1,1.2,0.3,1.8
		c-1.2-2.3-2.6-4.1-4.8-5.2c0.4,0.7,0.7,1.6,1.2,2.3c-1.8-1.9-2.1-4.8-4.3-6.5l0.3,1.6c-1.8-1.4-3-3-4.9-4.4l1.1,1.2
		c-1.2-0.7-2.2-1.8-3.4-2.1c1,0.7,1.4,1.1,2.1,1.9c-2.2-0.7-3.7-3-5.6-4.3c0.1,0.4,0.3,1,0.4,1.4c-0.7-1.1-1.6-1.9-2.6-2.6
		c0.4,0.7,0.7,1.2,1.1,1.9c-0.7-0.7-1.9-1.8-3-2.1c0.7,0.7,1.1,1.4,1.4,2.5c-1.1-1.2-3.6-3.4-2.5-0.4c-1-1.1-1.9-1.2-2.3-0.3
		c-1.2-1.1-2.9-1.2-1.6,0.4c-0.7-0.4-1.2-0.3-1.9-0.5c0.4,0.7,0.5,1.2,1.2,1.6c-1.2-0.1-3-1-4-0.3c1,0.3,1.6,0.7,2.6,1.1
		c-1,0.1-1.8,0.1-2.9,0c0.5,0.4,0.7,1.1,1.4,1.4c-1.2-0.3-2.5-0.3-3.3,0.5c0.1,0.1,0.5,0.1,0.7,0.3c-0.5,0.1-1.1,0.7-1.4,0.7
		l1.8,0.1c-4.5,1.8-6.5-2.2-9.9-4.7c-4.5-3.4-9.9-5.4-14.4-8.6c-5.4-4-12.9-4.4-19.2-5.4c-2.5-0.4-17.6-4.4-11.5,2.2
		c-4.9-2.1-5.1-5.6-11.3-4.7c-6.3,1-12.5,2.2-18.8,3.3c-4.7,0.7-10,1.6-13.7,4.8c-2.1,1.6-6.3,3.7-7.4,6.2c-1.4,3,0,4.3-3.3,6.6
		c-2.1,1.4-4.1,2.9-6.3,4c-1.2,0.7-5.2,1.4-5.8,2.5c-1.4,1.9,0.5,4.4-1.2,6.3c-1.9,1.9-3.4,1.6-4.8,4.3c-3,5.8,0.3,5.8,5.1,4.9
		c2.1-0.4,4.7-1.8,6.7-1.6c1.6,0.3,1.6,1.4,3,1.8c1.6,0.5,3.7-0.7,5.6-0.7c5.8,0.4-2.2,20.7-3.3,24.4c-4-1-5.1,20.7-5.1,24.2
		c0.1,10.8-1.1,21.5,0.4,32.4c0.4,2.6,1.2,4,1.9,6.3c1.1,3,0.4,6.9,1.8,10c1.6,3.6,2.2,7.4,3.4,11.4c1.4,5.4,4.3,11,6.5,16.1
		c4,10,12.1,22,21.8,27.3c0.7,0.4,3,1.6,3.6,1c0.7-0.7-4.7-3.4-5.2-4c-4.7-3.4-8.1-8.1-11-12.9c-6.5-10.3-10.6-20.7-12.6-32.7
		c-1-5.6-1.1-11.1-1.2-16.9c0-6.2,2.1-14,0.4-19.8c-1-3,0.4-4.9,1-8.1c0.5-3.3,0.7-6.9,1-10.3c0.5-5.1,2.2-9.7,3.6-14.5
		c0.3,0,1.2,0.1,1.6,0.3c0.3,12.8,1.9,26.1,4.7,38.7c2.3,10.8,6.3,23.1,11.3,32.9c5.2,10.3,13.2,19.4,20.7,28
		c4.4,5.2,1.9-3.7,1.1-5.8c-2.1-4.8-4.5-9.5-6.9-14.1c-2.2-4.7-4.3-9.3-5.8-14.4c-0.7-3-1.6-5.8-2.7-8.6c-1-2.3,0-5.1-0.5-7.4
		c-2.1-9.6-1.9-19.1-3-28.8c0.4,2.7,1.8,4.1,4.5,4.8c3,0.7,5.4-1.2,7.4,1.4l5.4,7.7c3,4.4,6.7,7.3,11.1,10c4,2.5,8.1,3,12.4,4.8
		c4,1.8,7.5,4.9,11.3,6.3c1.8,0.7,8.2,5.8,10,4.9c1.6-0.7-4.9-5.4-5.9-6.5c-2.9-3.3-3.7-6.6-3.6-11c0-3.3,0.7-6.5,2.7-9.2
		c2.9,4.3,8.2,8.6,13.2,10c1.6,0.5,6.3,1.6,5.6-1.4c2.7,2.9,7.7,13.3,5.4,3.3c-0.7-3.4,1.4-6.6,2.6-9.9c5.4,4.9,9.6,13.7,16.1,17.2
		c-0.5-1.9-1.8-4-2.7-5.8c1.6,1.9,4.3,2.2,6.3,3c2.1,0.7,3.6,1.2,5.2,2.3c1.2,1.1,2.3,2.2,4,3c-1.9,4,3.6,4.8,4.5,1.4
		c1.4,1,2.6,1.1,3.4,2.5c1.4,2.5,0.7,4.1,3,6.5c0.7,0.7,4.3,4.3,5.6,3.6c0.7-0.4,0.3-3.6,0.4-4.7c3.4,1.2,5.8,2.5,9.2,2.5
		c-0.4,1.9,1,1.6,1.4,2.3c-0.7-0.7,1.2,0.4,1.2,0.4c0.4,0.3,0.7,1.1,1.2,1.4c2.3,1.6,4.9,3,7.3,4.4c3.4,1.9,6.5,4.1,9.9,6.2
		c2.3,1.2,5.2,1.6,6.5,4c1.2,2.3,0.7,6.5,1.1,9.1c0.4,4.4,2.3,12.6,0.1,16.7c-1.2,2.1-6.6,1.6-6.9,4.7c-0.4,3.4,4.5,2.6,6.3,4.3
		c2.3,2.5-1.2,7.3-3,9.9c-3,4-6.6,13.4,2.2,12.8c2.6-0.3,2.1-0.7,4.1,0.7c1.6,1.1,2.9,3.3,4.3,4.7c1.8,1.8,3.7,1.6,5.6,2.6
		c0.7,0.4,1.8,1.4,2.3,1.8c0.5,0.4,1.9,0.3,2.1,1l0.1,1.6c0.5,0.5,0.3,2.2,1.6,1.4c0.7-0.3,0.7-3,0.7-3.6c0-2.2,0.7-3.7-1-5.8
		c-1.6-2.1-4-1.8-5.8-3.4c8.9,2.9,19.1-0.7,28.3,1c2.2,0.4,4.5,0.1,6.5,0.5c1.2,0.3,5.8,3,6.2,2.1c1.8-3.4-9.2-7.7-10.8-8
		c-4.8-0.7-10-0.7-14.8-0.5c-4,0-7-1.2-11-2.1c2.6-2.2,5.2-3.7,7.7-6.2c1.2-1.1,2.3-3.3-0.4-2.6c-5.2,1.2-9.5,4.4-15,5.6
		c0.5-7.1,0.7-14.4,1.1-21.5c0.1-4.1,0.7-8.2,1.2-12.4c0.1-1.8,0.1-4.1,1-5.8c1-2.1-0.1-2.1,1.6-1.4c5.4,1.8-0.1,9.5,2.2,12.2
		c1.6,1.6,5.8-1.2,7.1-2.2c-0.5,2.7-0.3,5.2,1.6,6.7c0.7,0.7,1.8-0.1,2.6,0.7c0.1,0.1,0.5,2.9,0.7,3.4c1.6,3-0.5,3.7-0.7,7
		c-0.1,2.9,1.2,5.2,2.2,8c0.4,1.2-1.1,4.4,0,5.1c1.6,0.7,4.3-4,4.5-4.9c0.7-2.9-0.4-6.3,0-9.5c0.7-4.9,1.2-6.9-1.2-11.3
		c2.5,2.6,5.6,5.2,6.5,8.8c0.4,1.8,0.1,3.6,1,5.4c0.7,1.6,1.9,2.7,2.3,4.4c0.4,1.8-1.2,5.8,1.4,3.4c2.6-2.2,1.8-8.6,1.6-11.4
		c-0.5-7.1-3.4-13.3-8.2-18.4c-7.1-7.1-14.5-14.1-22.8-19.9c2.9-4,4.1-8.9,6.9-13.2s5.9-8.2,9.7-11.4c3-2.6,6.2-3.6,8.2-7
		c2.3-3.4,5.4-4.9,9.2-7.1c8.6-4.9,16.1-12.1,23.1-19.1c3.4-3.4,6.3-6.5,8.2-10.8c1.4-3,2.6-6.2,4.1-9.2c4.8-9.1,8.6-18.7,12.9-27.9
		c3.4-7.4,5.8-15.2,5.9-23.6c0.3-9.7-3.4-18.4-4.9-27.9c-0.5-3.6,1.1-6.6,1.9-10c1.2-5.4,1.2-10.6,1.6-16.1h0.1
		c4.1,1.1,11,1.8,14.1-1.6c2.1-2.2,4.4-4,6.2-6.6c1.6-2.5,2.1-5.2,2.6-8.1c0.4-1.9,0.7-5.4-0.7-7c-0.5-0.7-1.4-0.5-2.1-1.1
		c-0.7-0.5-1-1.6-1.4-2.5c-0.1-0.3-0.4-0.5-0.5-0.7c0.3-0.7,0.1-1.8,1.1-1.9c2.1-0.3,4.1-0.4,6.2-0.3c1.6,0.1,3.6,1.2,4.7,1.4
		c0.7,0.1,0.3,1.4,1.2,0.3c0.5-0.5,0.5-1.8,0.4-2.6c-0.5-2.3-1.9-4.4-3.7-6.2c-1-0.7-1.8-1.6-3-2.1c-0.7-0.4-2.1-0.5-2.5-1.2
		c-0.3-0.3-0.1-0.5-0.1-0.7c0.7-0.7,2.2,0,3-1.1c1.2-1.2,1.2-4,1.4-5.8c-0.1-2.6-0.7-6.3-4.1-5.8c0.3-2.9-0.1-5.4-1.4-8
		c-0.5-1-1.1-0.5-1.6-1.1c-1.1-1-1-2.7-1.1-4.3c0-0.7,0-1.6-0.7-1.6c-0.5,0-1.2,0.3-1.2,0.7c-0.1,1.6-0.4,3-0.7,4.5
		c-0.1,0.7-0.4,2.6-1.4,1.2c-0.7-0.7,0.1-1.8,0.3-2.7c0.4-1.4,0.5-3,0.3-4.5c-0.5-2.5-1.2-5.2-3.3-7c-0.5-0.5-1.4-1.2-2.3-1.1
		c-1.1,0.1-0.7,1.2-1.2,1.8c-1.4,1.8-2.2,4.3-2.6,6.5c-0.4-2.9-1.1-5.8-1-8.8c0.1-1.4,1.4-6.9-1.9-6.3c-2.1,0.4-3.4,5.4-4.1,7.1
		s-1.6,3.3-2.6,4.8c-0.5-2.2-1.1-4.3-1.4-6.5c-0.3-1.6,0.1-3.7-1.1-4.9C531.6,134.4,531,134.3,530.8,134.3L530.8,134.3z M537.9,176
		h0.7c4.3,0.7,3,7.1-1.2,6.2C534,181.4,534.7,176.2,537.9,176z M538.7,177c-1.2,0-2.3,2.1-1.4,3.3c0.3,0.4,0.7,0.7,1,0.7
		c1.4,0.3,2.7-2.5,1.4-3.4C539.4,177.1,539,177,538.7,177z"/>
</g>
</svg>
