<svg xmlns="http://www.w3.org/2000/svg" width="500" height="500" viewBox="0 0 500 500" enable-background="new 0 0 500 500"><style type="text/css">.st0{fill:#FFFFFF;}</style><path class="st0" d="M100.8 398.5l-60.8-61.5v-174.2l61.4-61.4 61.3-61.4h173.4l61.9 61.3 61.9 61.3v174.8l-61.4 61.4-61.3 61.2h-175.6l-60.8-61.5zm286.8-11.5l56.1-56.8v-160.4l-56.6-57.2-56.6-57.2h-161l-57.1 57.1-57.1 57.1v160.8l56.7 56.7 56.7 56.7h162.8l56.1-56.8zm-270.4-4.2l-55-55v-155.8l55.5-54.9 55.5-54.9h153.6l55.5 54.9 55.5 54.9v155.8l-55 55-55 55h-155.6l-55-55zm261.3-4.3l53.3-53.2v-150.6l-53.2-53.3-53.2-53.3h-151.4l-52.9 52.9-52.8 52.8v152.2l52.8 52.8 52.8 52.8h151.4l53.2-53.1zM353.8 117.7c-1.5.1-2.4 3.5-2.8 4.7-1-.3 0-2-.3-2.8-.6-1.5-1.6-.9-2.6-.1-1.1.9-3.3 2.3-3.9 3.5-.4.8-.2 1.1-.8 1.8-.6.6-1.1 1.2-1.5 2-1.4 3.3.7 6.7 3.1 8.8 2.4 2.2 4.6 3.1 7.9 3.3-.8 1.1-.8 1.8-.3 2.3-.9.4-1.8 1-2.7 1.7-2.1 1.6-3.9 3.9-6.6 4.3-6.7 1.2-12.5.7-18.6 4.1-5.2 2.9-10 7.2-14.3 11.2-1.8 1.6-11.9 11.6-10.8 13-10 10.9-17.1 23.7-27 34.7-1.9 2.1-3.3 4-5.6 5.2-1.7.9-3.2 1.8-4.8 2.9-6 4.3-12.5 8.9-19.2 12.2-.4-1.8.4-4-1.1-5.5l-.3.4c-.3-.5-.7-1-.9-1.4.1.4.1.9.2 1.4-.9-1.8-2-3.2-3.7-4 .3.6.6 1.2 1 1.8-1.4-1.5-1.6-3.7-3.3-5l.2 1.3c-1.4-1.1-2.3-2.3-3.8-3.4l.8.9c-.9-.6-1.7-1.4-2.7-1.6.7.5 1.1.9 1.6 1.5-1.7-.6-2.9-2.3-4.3-3.3.1.3.2.7.3 1.1-.6-.8-1.2-1.5-2-2 .3.5.5 1 .9 1.5-.5-.6-1.5-1.4-2.4-1.6.5.5.9 1.1 1.1 1.9-.8-1-2.8-2.6-1.9-.3-.7-.8-1.5-1-1.8-.2-1-.8-2.2-1-1.3.3-.5-.3-1-.2-1.5-.4.3.5.4.9.9 1.3-.9-.1-2.4-.7-3.1-.2.7.2 1.3.5 2 .8-.7.1-1.4.1-2.2 0 .4.3.5.8 1.1 1.1-.9-.2-1.9-.2-2.5.4.1.1.4.1.6.2-.4.1-.8.5-1.1.6l1.4.1c-3.5 1.4-5-1.7-7.6-3.6-3.5-2.6-7.6-4.2-11.1-6.7-4.1-3-10-3.4-14.8-4.1-1.9-.3-13.5-3.4-8.9 1.7-3.8-1.6-3.9-4.3-8.7-3.6-4.9.7-9.6 1.7-14.5 2.5-3.6.6-7.7 1.3-10.5 3.7-1.6 1.3-4.9 2.9-5.7 4.7-1.1 2.4 0 3.3-2.5 5.1-1.6 1.1-3.2 2.2-4.9 3.1-1 .5-4 1.1-4.5 1.9-1.1 1.5.4 3.4-.9 4.8-1.5 1.5-2.6 1.2-3.7 3.3-2.3 4.4.2 4.5 3.9 3.8 1.6-.3 3.6-1.4 5.2-1.2 1.3.2 1.2 1.1 2.4 1.4 1.3.4 2.9-.6 4.3-.5 4.5.3-1.7 16-2.5 18.8-3.1-.7-3.9 16-3.9 18.6.1 8.3-.8 16.6.3 24.9.3 2 .9 3.1 1.5 4.9.8 2.4.3 5.3 1.4 7.7 1.3 2.8 1.7 5.7 2.6 8.8 1.1 4.1 3.3 8.4 5 12.4 3.1 7.7 9.3 16.9 16.8 21 .5.3 2.3 1.2 2.7.7.5-.6-3.6-2.7-4-3-3.6-2.7-6.2-6.2-8.5-9.9-5-7.9-8.2-16-9.7-25.2-.7-4.3-.8-8.6-.9-13 0-4.7 1.6-10.8.3-15.2-.7-2.3.3-3.8.7-6.2.4-2.5.5-5.3.7-7.9.4-3.9 1.7-7.5 2.8-11.2.2 0 1 .1 1.2.2.2 9.8 1.5 20.1 3.6 29.8 1.8 8.3 4.8 17.8 8.7 25.4 4 7.9 10.1 14.9 15.9 21.6 3.4 4 1.5-2.9.8-4.5-1.6-3.7-3.5-7.3-5.3-10.9-1.7-3.6-3.3-7.2-4.4-11.1-.6-2.3-1.3-4.5-2.1-6.7-.7-1.8 0-3.9-.4-5.7-1.6-7.4-1.5-14.7-2.4-22.2.3 2.1 1.4 3.2 3.5 3.7 2.4.5 4.2-1 5.7 1.1l4.2 6c2.3 3.4 5.2 5.6 8.6 7.8 3.1 1.9 6.3 2.3 9.5 3.7 3.1 1.4 5.8 3.8 8.7 4.9 1.4.5 6.4 4.4 7.7 3.8 1.2-.6-3.8-4.1-4.6-5-2.2-2.5-2.9-5.1-2.8-8.4 0-2.5.6-5 2.1-7.1 2.2 3.3 6.3 6.6 10.1 7.8 1.3.4 4.8 1.3 4.3-1.1 2.1 2.2 5.9 10.2 4.2 2.5-.6-2.6 1.1-5.1 2-7.6 4.1 3.8 7.4 10.6 12.3 13.2-.4-1.5-1.4-3-2.1-4.4 1.2 1.5 3.3 1.7 4.8 2.3 1.6.6 2.8 1 4 1.8 1 .8 1.8 1.7 3 2.3-1.5 3.1 2.8 3.7 3.5 1.1 1.1.7 2 .8 2.6 1.9 1.1 1.9.6 3.2 2.4 5 .5.5 3.3 3.3 4.3 2.8.5-.3.2-2.8.3-3.6 2.7 1 4.4 1.9 7.1 1.9-.3 1.5.7 1.3 1.1 1.8-.5-.5 1 .3 1 .3.3.2.6.8.9 1.1 1.8 1.2 3.8 2.4 5.6 3.4 2.7 1.5 5 3.2 7.6 4.7 1.8 1 4 1.2 5 3 .9 1.8.6 5 .8 7 .3 3.4 1.8 9.7.1 12.9-.9 1.6-5.1 1.3-5.3 3.6-.3 2.6 3.5 2 4.8 3.3 1.8 1.9-.9 5.6-2.4 7.6-2.3 3-5.1 10.4 1.7 9.9 2-.2 1.6-.6 3.2.6 1.2.9 2.2 2.5 3.3 3.6 1.4 1.4 2.9 1.3 4.3 2 .5.3 1.4 1.1 1.8 1.4s1.5.2 1.6.7l.1 1.2c.4.4.2 1.7 1.3 1.1.5-.2.6-2.3.6-2.7 0-1.7.5-2.9-.7-4.4s-3.1-1.4-4.4-2.6c6.9 2.2 14.7-.5 21.7.7 1.7.3 3.5.1 5 .4 1 .2 4.4 2.3 4.7 1.6 1.4-2.7-7.1-5.9-8.3-6.1-3.7-.6-7.7-.5-11.4-.4-3.1 0-5.4-1-8.5-1.6 2-1.7 4-2.9 5.9-4.7.9-.9 1.8-2.5-.3-2-4 1-7.3 3.4-11.5 4.3.4-5.5.6-11.1.8-16.6.1-3.2.6-6.3.9-9.5.1-1.4.1-3.2.7-4.5.7-1.6-.1-1.6 1.3-1.1 4.2 1.4-.1 7.3 1.7 9.4 1.2 1.3 4.4-.9 5.5-1.7-.4 2.1-.2 4 1.3 5.2.6.5 1.4-.1 2 .5.1.1.4 2.2.5 2.6 1.2 2.4-.4 2.9-.5 5.4-.1 2.2 1 4 1.7 6.1.3 1-.8 3.4 0 3.9 1.2.6 3.3-3 3.5-3.8.6-2.2-.3-4.9 0-7.3.6-3.8.9-5.3-1-8.7 1.9 2 4.3 4 5 6.8.3 1.4.1 2.8.7 4.1.5 1.3 1.5 2.1 1.8 3.4.3 1.4-1 4.4 1.1 2.6 2-1.7 1.4-6.6 1.2-8.8-.4-5.5-2.6-10.3-6.3-14.1-5.5-5.5-11.2-10.9-17.6-15.3 2.2-3.1 3.2-6.9 5.3-10.1 2.1-3.3 4.6-6.3 7.5-8.8 2.3-2 4.7-2.8 6.4-5.4 1.8-2.7 4.1-3.8 7.1-5.5 6.7-3.8 12.4-9.3 17.8-14.7 2.6-2.6 4.9-5 6.4-8.3 1.1-2.4 2-4.7 3.2-7.1 3.7-7 6.6-14.4 9.9-21.5 2.7-5.7 4.5-11.8 4.6-18.1.2-7.5-2.6-14.1-3.8-21.5-.4-2.8.8-5.1 1.5-7.8 1-4.1.9-8.2 1.2-12.3h.1c3.2.8 8.5 1.4 10.9-1.2 1.6-1.7 3.4-3 4.7-5.1 1.2-1.9 1.6-4 2-6.2.3-1.5.5-4.1-.5-5.4-.4-.6-1.1-.4-1.6-.8s-.7-1.3-1.1-1.9c-.1-.2-.3-.4-.4-.5.2-.6.1-1.4.9-1.5 1.6-.2 3.2-.3 4.7-.2 1.2.1 2.8 1 3.6 1.1.6.1.2 1.1 1 .2.4-.4.4-1.4.3-2-.4-1.8-1.5-3.4-2.9-4.7-.7-.6-1.4-1.2-2.3-1.6-.5-.3-1.6-.4-1.9-.9-.2-.2-.1-.4-.1-.5.5-.5 1.7 0 2.4-.8 1-1 1-3.1 1.1-4.4-.1-2-.6-4.8-3.2-4.4.2-2.2-.1-4.1-1.1-6.1-.4-.7-.8-.4-1.3-.8-.8-.7-.7-2.1-.8-3.3 0-.5 0-1.2-.6-1.3-.4 0-1 .2-1 .6-.1 1.2-.3 2.3-.6 3.5-.1.6-.3 2-1.1 1-.5-.6.1-1.4.2-2.1.3-1.1.4-2.4.2-3.5-.4-1.9-1-4-2.5-5.4-.4-.4-1.1-.9-1.8-.8-.8.1-.6.9-.9 1.4-1.1 1.4-1.7 3.3-2 5-.3-2.2-.8-4.5-.7-6.8.1-1.1 1.1-5.3-1.5-4.8-1.6.3-2.7 4.2-3.2 5.5-.5 1.4-1.2 2.5-2 3.7-.4-1.7-.8-3.3-1.1-5-.2-1.2.1-2.9-.8-3.8-.3-.6-.7-.7-1-.7zm5.5 32.2h.5c3.3.6 2.4 5.5-.9 4.7-2.5-.6-2-4.6.4-4.7zm.7.7c-1 0-1.8 1.6-1.1 2.5.2.3.5.5.7.5 1.1.2 2.1-1.9 1.1-2.7-.2-.2-.5-.3-.7-.3z"/></svg>
